<svg xmlns="http://www.w3.org/2000/svg" width="50.583" height="50.583" viewBox="0 0 50.583 50.583"><path d="M25.291,4.557c6.753,0,7.553.026,10.22.147a14,14,0,0,1,4.7.871,7.837,7.837,0,0,1,2.908,1.892,7.836,7.836,0,0,1,1.892,2.908,14,14,0,0,1,.871,4.7c.122,2.667.147,3.467.147,10.22s-.026,7.553-.147,10.22a14,14,0,0,1-.871,4.7,8.375,8.375,0,0,1-4.8,4.8,14,14,0,0,1-4.7.871c-2.666.122-3.466.147-10.22.147s-7.553-.026-10.22-.147a13.994,13.994,0,0,1-4.7-.871,7.835,7.835,0,0,1-2.908-1.892,7.836,7.836,0,0,1-1.892-2.908,14,14,0,0,1-.871-4.7c-.122-2.667-.147-3.467-.147-10.22s.026-7.553.147-10.22a14,14,0,0,1,.871-4.7A7.836,7.836,0,0,1,7.467,7.467a7.837,7.837,0,0,1,2.908-1.892,14,14,0,0,1,4.7-.871c2.667-.122,3.467-.147,10.22-.147m0-4.557c-6.869,0-7.73.029-10.428.152A18.564,18.564,0,0,0,8.724,1.328a12.4,12.4,0,0,0-4.48,2.917,12.4,12.4,0,0,0-2.917,4.48A18.564,18.564,0,0,0,.152,14.864C.029,17.561,0,18.423,0,25.292s.029,7.73.152,10.428a18.564,18.564,0,0,0,1.176,6.139,12.4,12.4,0,0,0,2.917,4.48,12.4,12.4,0,0,0,4.48,2.917,18.564,18.564,0,0,0,6.139,1.176c2.7.123,3.559.152,10.428.152s7.73-.029,10.428-.152a18.564,18.564,0,0,0,6.139-1.176,12.933,12.933,0,0,0,7.4-7.4,18.564,18.564,0,0,0,1.176-6.139c.123-2.7.152-3.559.152-10.428s-.029-7.73-.152-10.428a18.564,18.564,0,0,0-1.176-6.139,12.4,12.4,0,0,0-2.917-4.48,12.4,12.4,0,0,0-4.48-2.917A18.564,18.564,0,0,0,35.719.152C33.022.029,32.16,0,25.291,0Zm0,12.3A12.988,12.988,0,1,0,38.279,25.292,12.988,12.988,0,0,0,25.291,12.3Zm0,21.418a8.431,8.431,0,1,1,8.431-8.431A8.431,8.431,0,0,1,25.291,33.722ZM41.827,11.791a3.035,3.035,0,1,1-3.035-3.035A3.035,3.035,0,0,1,41.827,11.791Z" fill="#fff"/></svg>