<svg xmlns="http://www.w3.org/2000/svg" width="295.779" height="349.356" viewBox="0 0 295.779 349.356">
  <g id="Сгруппировать_22427" data-name="Сгруппировать 22427" transform="translate(145.551 0)">
    <g id="Компонент_1_1" data-name="Компонент 1 – 1" transform="translate(-69.926 0)">
      <path id="Контур_13446" data-name="Контур 13446" d="M1761.59,255.709a12.037,12.037,0,0,0-7.726-2.816.684.684,0,0,1-.678-.785l2.391-15.955a62.506,62.506,0,0,0-.18-19.625.364.364,0,0,0-.671-.123,34.355,34.355,0,0,1-2.445,3.574,37.926,37.926,0,0,1-9.565,8.55.408.408,0,0,0-.1.6,15.285,15.285,0,0,1,3.388,9.638v9.075a1.081,1.081,0,0,0,.284.724,27.386,27.386,0,0,1,5.476,8.956.717.717,0,0,0,.8.464,7.189,7.189,0,0,1,1.276-.115,7.114,7.114,0,0,1,7.109,7.118,48.251,48.251,0,0,1-1.889,13.366l-2.1,7.275a9.512,9.512,0,0,1-7.477,6.7l-3.089.5a.688.688,0,0,1-.79-.774l.705-5.214a.477.477,0,0,0-.816-.395,27.7,27.7,0,0,1-4.185,3.463,1.3,1.3,0,0,0-.563.9l-.648,4.769c0,.023-.008.05-.012.073l-.494,3.662a.387.387,0,0,0-.008.061A41.442,41.442,0,0,1,1723.9,327.4l-9,6.991a28.062,28.062,0,0,1-17.211,5.9h-4.108a.436.436,0,0,1-.433-.437v-9.868a.4.4,0,0,1,.46-.437,19.466,19.466,0,0,0,17.767-11.492,1.97,1.97,0,0,0-.548-2.341l-8.925-7.232a4.1,4.1,0,0,0-4.809-.257l-1.475.961a3.637,3.637,0,0,1-1.433.54.324.324,0,0,1-.372-.295,7.046,7.046,0,0,0-7.013-6.451h-8.385a19.219,19.219,0,0,0-13.616,5.6s-7.285,7.171-7.848,7.616a11.864,11.864,0,0,1-1.8,1.218,11.607,11.607,0,0,1-3.978,1.337,11.058,11.058,0,0,1-4.024-.146,10.424,10.424,0,0,1-1.859-.6c-.6-.268-1.108-.548-1.656-.835a.347.347,0,0,1-.146-.471.356.356,0,0,1,.345-.188l.008,0c.6.057,1.223.165,1.778.2a11.072,11.072,0,0,0,1.675-.023,9.818,9.818,0,0,0,3.074-.843,9.008,9.008,0,0,0,2.464-1.716,8.828,8.828,0,0,0,.9-1.038v0a0,0,0,0,0,0,0,.232.232,0,0,0,.038-.123.219.219,0,0,0-.1-.184,11.882,11.882,0,0,1-5.185-8.106l-2.288-13.909a1.291,1.291,0,0,0-.56-.858,27.725,27.725,0,0,1-7.722-7.857.457.457,0,0,0-.839.184l-1.226,8.688a.687.687,0,0,1-.981.525,9.531,9.531,0,0,1-4.825-5.815l-2.1-7.275a48.256,48.256,0,0,1-1.889-13.366,7.118,7.118,0,0,1,8.385-7,.624.624,0,0,0,.119.011.676.676,0,0,0,.629-.444,27.58,27.58,0,0,1,8.557-11.883.767.767,0,0,0,.287-.594V226.04a24.785,24.785,0,0,1,24.791-24.781h18.721a5.639,5.639,0,0,1,5.633,5.631v10.6a1.532,1.532,0,0,0,.414,1.046l.8.85.4.429.4.395L1696,221l.847.739.422.372.444.345.889.69c.307.222.621.433.927.647s.613.433.939.621a38.436,38.436,0,0,0,8.124,3.911,40.182,40.182,0,0,0,8.764,2,33.209,33.209,0,0,0,17.318-2.563,32.013,32.013,0,0,0,13.317-10.971,35.185,35.185,0,0,0,2.246-3.689c.176-.31.337-.632.491-.958l.467-.969c.272-.667.575-1.318.82-1.992a34.51,34.51,0,0,0,2.077-8.347c.061-.349.081-.728.115-1.1l.1-1.119.226-2.36.127-1.18.057-.582a2.725,2.725,0,0,1,.023-.3,2.647,2.647,0,0,0-.253-1.157,2.809,2.809,0,0,0-1.962-1.517l-.165-.038-.165-.012a1.447,1.447,0,0,0-.341-.011,1.751,1.751,0,0,0-.345.031l-.176.031a1.291,1.291,0,0,0-.23.046l-1.226.3-1.242.241a26.357,26.357,0,0,1-9.914-.222A24.387,24.387,0,0,1,1729.9,188a.272.272,0,0,1,.257-.475h0a28.629,28.629,0,0,0,8.9,1.923,25,25,0,0,0,3.94-.107.3.3,0,0,0,.2-.487,61.514,61.514,0,0,0-48.528-23.624h-.031a61.58,61.58,0,0,0-26.619,5.972,60.482,60.482,0,0,0-27.784,26.762,62.1,62.1,0,0,0-6.48,38.108l2.38,16.231a.692.692,0,0,1-.809.778,12.1,12.1,0,0,0-14.252,11.906,53.183,53.183,0,0,0,2.085,14.745l2.1,7.278a14.545,14.545,0,0,0,9.205,9.65.7.7,0,0,1,.471.755l-3.767,26.727a53.818,53.818,0,0,0,28.6,55.289,108.425,108.425,0,0,0,28.5,9.975s2.02.429,2.388.429a2.621,2.621,0,0,0,2.491-2.49l-.008-8.6a.366.366,0,0,1,.372-.395l.1,0c13.52,0,27.228-3.842,37.6-10.542,5.354-3.459,7.845-8.029,6.668-12.232-.878-3.134-3.391-4.938-5.607-6.531-.475-.345-.924-.667-1.345-.992a16.837,16.837,0,0,1-6.431-10.864l-.395-2.908a1.166,1.166,0,0,1,.437-1.073l2.414-1.873a46.42,46.42,0,0,0,17.575-31.378l.176-1.314a.691.691,0,0,1,.575-.59l5.013-.8a14.526,14.526,0,0,0,11.451-10.236l2.1-7.278a53.187,53.187,0,0,0,2.085-14.745A12.061,12.061,0,0,0,1761.59,255.709Zm-68.536,68.827a.847.847,0,0,1-.908.766h-.119l0,0a13.159,13.159,0,0,1-10.888-6.489.02.02,0,0,1-.008-.015c-.314-.617.265-1.3,1.062-1.3h9.956a.842.842,0,0,1,.9.759Zm34.824,27.444c.49.383,1,.751,1.491,1.1,1.7,1.226,3.311,2.379,3.717,3.835.655,2.341-1.932,5-4.576,6.7-9.447,6.1-22.5,9.745-34.9,9.745h-.019a.421.421,0,0,1-.441-.471V346.038a.766.766,0,0,1,.766-.766h3.775a32.994,32.994,0,0,0,20.265-6.949l.862-.67c.375-.306.7-.054.789.525A21.857,21.857,0,0,0,1727.877,351.98Z" transform="translate(-1621.079 -165.234)" fill="#fff"/>
      <path id="Контур_13447" data-name="Контур 13447" d="M1847.316,526.95a2.641,2.641,0,0,0,2.66,2.624,2.579,2.579,0,0,0,2.587-2.624,2.627,2.627,0,0,0-2.587-2.624A2.666,2.666,0,0,0,1847.316,526.95Z" transform="translate(-1760.615 -386.767)" fill="#fff"/>
      <path id="Контур_13448" data-name="Контур 13448" d="M1799.806,492.746a7.958,7.958,0,0,1-11.255,0,2.491,2.491,0,0,0-3.523,3.523,12.94,12.94,0,0,0,18.3,0,2.491,2.491,0,1,0-3.523-3.523Z" transform="translate(-1721.748 -366.836)" fill="#fff"/>
      <path id="Контур_13449" data-name="Контур 13449" d="M1775.879,392.2a23.487,23.487,0,0,0-46.068-5.258.684.684,0,0,1-.92.441,23.228,23.228,0,0,0-17.881.023.682.682,0,0,1-.92-.445,23.493,23.493,0,1,0,.87,6.737.688.688,0,0,1,.334-.59.081.081,0,0,1,.03-.019,17.869,17.869,0,0,1,17.241-.034.328.328,0,0,1,.077.046.713.713,0,0,1,.291.575,23.487,23.487,0,1,0,46.945-1.475Z" transform="translate(-1647.545 -291.462)" fill="#fff"/>
    </g>
    <g id="Сгруппировать_22421" data-name="Сгруппировать 22421" transform="translate(-145.551 250.346)">
      <path id="Контур_13450" data-name="Контур 13450" d="M1820.479,841.276h-30.754c-2.88-1.1-4.261-1.743-4.261-3.677,0-2.022,1.427-3.211,3.863-3.211a4.25,4.25,0,0,1,4.339,3.268l5.466-2.612c-1.308-4.22-5.228-6.418-10.1-6.418-6.18,0-10.456,3.982-10.456,9.329a7.334,7.334,0,0,0,.739,3.32h-6.423c-.564-8.29-5.063-12.649-12.618-12.649-6.971,0-13.011,4.53-14.34,12.649h-7.405v-.946c0-7.188-4.4-11.7-10.813-11.7-4.758,0-7.669,2.141-9.091,4.22v-3.625h-6.656v12.054h-9.448V829.221h-6.95v12.054h-9.091V829.221h-6.417l-.057,3.149c-1.965-2.079-4.4-3.744-9.21-3.744-6.433,0-12.628,4.189-13.859,12.649h-12.82v-1.655a11.68,11.68,0,0,1,8.672-3.568l.419-7.012a11.212,11.212,0,0,0-9.091,4.282v-4.1h-6.95v12.054h-9.51V829.221h-6.474v3.149c-1.96-2.079-4.4-3.744-9.21-3.744-6.433,0-12.623,4.189-13.859,12.649h-7.354v-.946c0-7.188-4.277-11.7-10.632-11.7-5.409,0-8.44,2.317-10.28,4.933-1.784-3.211-4.991-4.933-9.153-4.933-4.69,0-7.483,2.141-8.91,4.22v-3.625h-6.656v12.054H1524.7v6.216h20.427V859.7h6.95v-12.21H1564.5V859.7h6.894v-12.21h12.473V859.7h6.893v-12.21h7.338c1.194,8.579,7.416,12.8,13.875,12.8,4.815,0,7.25-1.665,9.21-3.744V859.7h6.474v-12.21h9.51V859.7h6.95v-12.21h12.8c1.189,8.708,7.493,12.8,14.237,12.8,4.039,0,6.593-1.246,8.377-3.092v4.577c0,5.171-2.974,7.726-7.726,7.726a11.114,11.114,0,0,1-9.267-4.514l-4.7,4.453c3.149,3.925,8.021,5.942,13.787,5.942,8.734,0,14.852-5.523,14.852-14.2V847.492h9.091V859.7h6.95v-12.21h9.448V859.7h6.95v-12.21h12.654V859.7h6.956v-12.21h7.312c1.143,8.419,7.555,12.8,15.085,12.8,4.871,0,9.153-1.9,11.708-5.347l-4.339-3.982a8.664,8.664,0,0,1-7.369,3.563,7.823,7.823,0,0,1-8.186-7.038h36.111c2.653,1,3.925,1.877,3.925,3.832,0,2.022-1.308,3.206-4.1,3.206a5.7,5.7,0,0,1-5.466-4.158l-5.585,3.03c2.017,4.634,5.761,6.893,11.17,6.893,5.88,0,10.87-3.506,10.87-9.5a8.275,8.275,0,0,0-.61-3.3h21.425Zm-268.4,0V838.55a8.613,8.613,0,0,1,6.837-3.506c3.584,0,5.533,2.612,5.58,6.231Zm19.315,0v-1.241a10.042,10.042,0,0,0-.062-1.365c1.665-1.9,3.744-3.625,6.95-3.625,3.584,0,5.539,2.612,5.585,6.231Zm49.37,9.81a8.41,8.41,0,0,1-7.245,3.444c-3.77,0-7.245-2.327-8.29-7.038h15.535Zm0-9.81h-15.509c1.076-4.6,4.525-6.888,8.264-6.888a8.413,8.413,0,0,1,7.245,3.449Zm58.824,9.81a8.421,8.421,0,0,1-7.25,3.444c-3.77,0-7.24-2.327-8.285-7.038h15.535Zm0-9.81h-15.509c1.076-4.6,4.52-6.888,8.259-6.888a8.424,8.424,0,0,1,7.25,3.449Zm39.333,0V838.55a8.662,8.662,0,0,1,6.831-3.506c3.568,0,5.745,2.586,5.818,6.231Zm33.81,0c.538-4.1,3.325-6.945,7.188-6.945s6.118,2.612,6.237,6.945Zm-57.934-22.392a4.226,4.226,0,0,1,4.163-4.22,4.218,4.218,0,1,1,0,8.434A4.149,4.149,0,0,1,1694.795,818.884Z" transform="translate(-1524.699 -814.664)" fill="#fff"/>
    </g>
    <g id="Сгруппировать_22426" data-name="Сгруппировать 22426" transform="translate(-145.551 321.912)">
      <g id="Сгруппировать_22425" data-name="Сгруппировать 22425" transform="translate(17.082)">
        <path id="Контур_13469" data-name="Контур 13469" d="M-3593.384-5056.354a5.457,5.457,0,0,1,4.465-1.848c3.144,0,6.287,2.191,6.287,6.92,0,4.7-3.144,6.919-6.235,6.919a5.442,5.442,0,0,1-4.569-1.9v1.664h-1.479v-20.523h1.531Zm0,1.585v7.026a4.895,4.895,0,0,0,4.28,2.034c2.43,0,4.938-1.8,4.938-5.573s-2.509-5.573-4.938-5.573A4.925,4.925,0,0,0-3593.384-5054.77Z" transform="translate(3594.915 5065.309)" fill="#fff"/>
        <path id="Контур_13470" data-name="Контур 13470" d="M-3563.493-5055.228v-1.69h1.479v13.365h-1.451v-1.664a5.538,5.538,0,0,1-4.6,1.9c-3.091,0-6.234-2.219-6.234-6.919s3.143-6.919,6.259-6.919A5.462,5.462,0,0,1-3563.493-5055.228Zm-9.271,4.992c0,3.778,2.509,5.573,4.94,5.573a4.887,4.887,0,0,0,4.278-2.034v-7.025a4.916,4.916,0,0,0-4.278-2.086C-3570.256-5055.808-3572.765-5054.012-3572.765-5050.235Z" transform="translate(3592.204 5064.261)" fill="#fff"/>
        <path id="Контур_13471" data-name="Контур 13471" d="M-3545.823-5055.416a5.233,5.233,0,0,0-4.041,2.113v9.773h-1.532v-13.365h1.532v1.954a5.348,5.348,0,0,1,4.146-2.035Z" transform="translate(3589.195 5064.238)" fill="#fff"/>
        <path id="Контур_13472" data-name="Контур 13472" d="M-3536.878-5056.354a5.456,5.456,0,0,1,4.463-1.848c3.144,0,6.287,2.191,6.287,6.92,0,4.7-3.143,6.919-6.234,6.919a5.439,5.439,0,0,1-4.568-1.9v1.664h-1.479v-20.523h1.532Zm0,1.585v7.026a4.892,4.892,0,0,0,4.279,2.034c2.431,0,4.939-1.8,4.939-5.573s-2.508-5.573-4.939-5.573A4.922,4.922,0,0,0-3536.878-5054.77Z" transform="translate(3587.488 5065.309)" fill="#fff"/>
        <path id="Контур_13473" data-name="Контур 13473" d="M-3506.2-5049.812h-10.037a4.765,4.765,0,0,0,4.913,5.15,4.929,4.929,0,0,0,4.068-1.876l.977.9a6.117,6.117,0,0,1-5.045,2.323c-3.566,0-6.47-2.43-6.47-6.788s2.771-7.051,6.232-7.051C-3507.86-5057.155-3505.773-5054.594-3506.2-5049.812Zm-10.01-1.321h8.558c.053-2.958-1.479-4.674-3.963-4.674S-3515.969-5053.933-3516.206-5051.134Z" transform="translate(3584.778 5064.261)" fill="#fff"/>
        <path id="Контур_13474" data-name="Контур 13474" d="M-3491.173-5055.416a5.238,5.238,0,0,0-4.043,2.113v9.773h-1.531v-13.365h1.531v1.954a5.353,5.353,0,0,1,4.148-2.035Z" transform="translate(3582.012 5064.238)" fill="#fff"/>
        <path id="Контур_13475" data-name="Контур 13475" d="M-3476.888-5054.753l-1.242.661a2.806,2.806,0,0,0-2.8-1.716c-1.611,0-2.641.9-2.641,2.323,0,1.454,1.11,1.876,3.116,2.563,2.324.792,3.8,1.532,3.8,3.75,0,2.536-1.927,3.856-4.279,3.856a4.775,4.775,0,0,1-4.6-2.693l1.242-.714a3.532,3.532,0,0,0,3.353,2.061c1.664,0,2.747-.766,2.747-2.4,0-1.532-1.03-1.98-2.958-2.615-2.35-.792-3.961-1.637-3.961-3.7,0-2.246,1.636-3.776,4.121-3.776A4.141,4.141,0,0,1-3476.888-5054.753Z" transform="translate(3580.537 5064.261)" fill="#fff"/>
        <path id="Контур_13476" data-name="Контур 13476" d="M-3466.325-5056.2a5.539,5.539,0,0,1,4.385-2.006c2.878,0,4.755,2.086,4.755,5.176v8.426h-1.531v-8.215c0-2.3-1.322-3.962-3.541-3.962a5.22,5.22,0,0,0-4.068,2.113v10.064h-1.532v-20.523h1.532Z" transform="translate(3578.214 5065.309)" fill="#fff"/>
        <path id="Контур_13477" data-name="Контур 13477" d="M-3434.757-5050.235a6.623,6.623,0,0,1-6.709,6.919,6.616,6.616,0,0,1-6.683-6.919,6.616,6.616,0,0,1,6.683-6.919A6.623,6.623,0,0,1-3434.757-5050.235Zm-11.86,0c0,3.354,2.324,5.573,5.151,5.573s5.149-2.219,5.149-5.573c0-3.407-2.324-5.573-5.149-5.573S-3446.616-5053.643-3446.616-5050.235Z" transform="translate(3575.624 5064.261)" fill="#fff"/>
        <path id="Контур_13478" data-name="Контур 13478" d="M-3412.9-5050.235c0,4.728-3.144,6.919-6.288,6.919a5.451,5.451,0,0,1-4.464-1.85v8.349h-1.532v-20.1h1.479v1.664a5.445,5.445,0,0,1,4.57-1.9C-3416.048-5057.155-3412.9-5054.938-3412.9-5050.235Zm-10.752-3.539v7.025a4.927,4.927,0,0,0,4.28,2.087c2.429,0,4.938-1.8,4.938-5.573s-2.509-5.573-4.938-5.573A4.893,4.893,0,0,0-3423.657-5053.774Z" transform="translate(3572.606 5064.261)" fill="#fff"/>
        <path id="Контур_13479" data-name="Контур 13479" d="M-3382.508-5047.426a7.73,7.73,0,0,1-6.208,3.116c-3.46,0-5.97-2.007-5.97-5.229,0-2.826,1.77-4.2,4.331-5.786-1.5-1.451-2.852-2.931-2.852-4.833,0-2.826,2.166-4.358,4.754-4.358,2.536,0,4.755,1.664,4.755,4.278,0,2.405-2.034,3.725-4.253,5.046.292.264.582.554.872.845l4.437,4.517a24.526,24.526,0,0,0,2.193-4.833l1.479.475a26.418,26.418,0,0,1-2.589,5.467l4.122,4.2h-2.219Zm-1.03-1.084-4.86-4.966c-.292-.315-.609-.606-.924-.9-2.326,1.426-3.751,2.509-3.751,4.806,0,2.484,1.927,3.777,4.383,3.777A6.427,6.427,0,0,0-3383.538-5048.51Zm-5.442-7.633c2.007-1.163,3.672-2.192,3.672-3.988a3,3,0,0,0-3.143-2.933,2.893,2.893,0,0,0-3.142,2.986C-3391.594-5058.626-3390.407-5057.412-3388.981-5056.144Z" transform="translate(3568.598 5065.23)" fill="#fff"/>
        <path id="Контур_13480" data-name="Контур 13480" d="M-3348.5-5054.7l-1.11.845a4.627,4.627,0,0,0-3.883-1.954c-2.8,0-4.991,2.06-4.991,5.573s2.191,5.573,4.991,5.573a4.563,4.563,0,0,0,3.883-1.954l1.11.844a5.78,5.78,0,0,1-4.992,2.456c-3.618,0-6.55-2.588-6.55-6.919s2.931-6.919,6.55-6.919A5.84,5.84,0,0,1-3348.5-5054.7Z" transform="translate(3564.043 5064.261)" fill="#fff"/>
        <path id="Контур_13481" data-name="Контур 13481" d="M-3330.175-5055.228v-1.69h1.479v13.365h-1.454v-1.664a5.536,5.536,0,0,1-4.6,1.9c-3.091,0-6.233-2.219-6.233-6.919s3.142-6.919,6.26-6.919A5.464,5.464,0,0,1-3330.175-5055.228Zm-9.271,4.992c0,3.778,2.509,5.573,4.938,5.573a4.895,4.895,0,0,0,4.281-2.034v-7.025a4.924,4.924,0,0,0-4.281-2.086C-3336.937-5055.808-3339.446-5054.012-3339.446-5050.235Z" transform="translate(3561.538 5064.261)" fill="#fff"/>
        <path id="Контур_13482" data-name="Контур 13482" d="M-3311.911-5065.07l-.21,1.374a3.816,3.816,0,0,0-1.3-.211c-1.638,0-2.748.978-2.748,3.329v2.588h3.83v1.347h-3.83v12.018h-1.531v-12.018h-2.694v-1.347h2.694v-2.615c0-3.2,1.611-4.7,4.252-4.7A4.247,4.247,0,0,1-3311.911-5065.07Z" transform="translate(3558.833 5065.333)" fill="#fff"/>
        <path id="Контур_13483" data-name="Контур 13483" d="M-3294.775-5050.889h-10.036a4.772,4.772,0,0,0,4.939,5.15,4.967,4.967,0,0,0,4.068-1.876l.951.9a6.065,6.065,0,0,1-5.019,2.323c-3.565,0-6.5-2.431-6.5-6.788s2.8-7.051,6.26-7.051C-3296.412-5058.231-3294.351-5055.67-3294.775-5050.889Zm-10.01-1.321h8.558c.053-2.958-1.452-4.675-3.962-4.675C-3302.646-5056.885-3304.548-5055.009-3304.785-5052.21Zm4.067-8.082,2.959-5.045h1.743l-3.46,5.045Z" transform="translate(3556.989 5065.337)" fill="#fff"/>
      </g>
      <rect id="Прямоугольник_9455" data-name="Прямоугольник 9455" width="295.779" height="1.485" transform="translate(0 13.042)" fill="#fff"/>
    </g>
  </g>
</svg>
