<svg xmlns="http://www.w3.org/2000/svg" width="922.714" height="432.282" viewBox="0 0 922.714 432.282"><g transform="translate(0 0)"><path d="M1891.51,339.365a23.167,23.167,0,0,0-14.869-5.419,1.316,1.316,0,0,1-1.305-1.511l4.6-30.708a120.31,120.31,0,0,0-.347-37.771.7.7,0,0,0-1.291-.236,66.169,66.169,0,0,1-4.706,6.879,72.994,72.994,0,0,1-18.41,16.456.785.785,0,0,0-.192,1.158,29.417,29.417,0,0,1,6.52,18.55v17.466a2.08,2.08,0,0,0,.546,1.393,52.713,52.713,0,0,1,10.54,17.238,1.38,1.38,0,0,0,1.542.892,13.829,13.829,0,0,1,2.456-.221,13.691,13.691,0,0,1,13.682,13.7,92.861,92.861,0,0,1-3.636,25.724l-4.042,14a18.306,18.306,0,0,1-14.39,12.9l-5.945.958a1.324,1.324,0,0,1-1.52-1.489l1.357-10.034a.918.918,0,0,0-1.571-.759,53.294,53.294,0,0,1-8.054,6.665,2.5,2.5,0,0,0-1.084,1.725l-1.246,9.179c-.008.044-.015.1-.022.14l-.952,7.048a.739.739,0,0,0-.015.118,79.762,79.762,0,0,1-30.181,53.939L1801.659,490.8a54.009,54.009,0,0,1-33.125,11.354h-7.907a.839.839,0,0,1-.833-.84V482.324a.775.775,0,0,1,.885-.841,37.465,37.465,0,0,0,34.194-22.118,3.791,3.791,0,0,0-1.055-4.5l-17.178-13.92a7.884,7.884,0,0,0-9.256-.494l-2.84,1.851a7,7,0,0,1-2.759,1.04.624.624,0,0,1-.715-.568,13.561,13.561,0,0,0-13.5-12.416h-16.138a36.989,36.989,0,0,0-26.206,10.772s-14.021,13.8-15.105,14.657a22.838,22.838,0,0,1-3.459,2.345,22.34,22.34,0,0,1-7.656,2.573,21.282,21.282,0,0,1-7.745-.28,20.073,20.073,0,0,1-3.577-1.158c-1.158-.516-2.132-1.054-3.186-1.607a.669.669,0,0,1-.28-.907.685.685,0,0,1,.664-.361l.015.007c1.151.111,2.353.317,3.422.383a21.32,21.32,0,0,0,3.223-.044,18.891,18.891,0,0,0,5.915-1.622,17.333,17.333,0,0,0,4.742-3.3,17,17,0,0,0,1.733-2V449.8a.007.007,0,0,0,.007-.007.445.445,0,0,0,.074-.236.422.422,0,0,0-.2-.354,22.867,22.867,0,0,1-9.979-15.6l-4.4-26.771a2.483,2.483,0,0,0-1.077-1.652A53.356,53.356,0,0,1,1653.5,390.06a.88.88,0,0,0-1.615.354l-2.36,16.722a1.322,1.322,0,0,1-1.888,1.01,18.344,18.344,0,0,1-9.286-11.192l-4.042-14a92.866,92.866,0,0,1-3.636-25.724,13.7,13.7,0,0,1,16.138-13.478,1.2,1.2,0,0,0,.229.022,1.3,1.3,0,0,0,1.21-.855,53.079,53.079,0,0,1,16.47-22.87,1.476,1.476,0,0,0,.553-1.143V282.263a47.7,47.7,0,0,1,47.714-47.695h36.031a10.853,10.853,0,0,1,10.842,10.838v20.4a2.948,2.948,0,0,0,.8,2.013l1.549,1.637.774.826.774.759,1.527,1.526,1.63,1.423.812.715.855.664,1.711,1.327c.59.428,1.195.833,1.785,1.246s1.18.833,1.807,1.194a73.965,73.965,0,0,0,15.636,7.528,77.331,77.331,0,0,0,16.868,3.849,63.914,63.914,0,0,0,33.331-4.932,61.614,61.614,0,0,0,25.631-21.116,67.743,67.743,0,0,0,4.322-7.1c.339-.6.649-1.217.944-1.843l.9-1.865c.524-1.283,1.106-2.536,1.578-3.834a66.423,66.423,0,0,0,4-16.065c.118-.671.155-1.4.221-2.109l.2-2.153.435-4.542.244-2.271.11-1.121a5.3,5.3,0,0,1,.044-.582,5.1,5.1,0,0,0-.487-2.227,5.407,5.407,0,0,0-3.776-2.92l-.317-.074-.317-.022a2.784,2.784,0,0,0-.656-.022,3.369,3.369,0,0,0-.664.059l-.339.059a2.486,2.486,0,0,0-.442.088l-2.36.582-2.39.464a50.727,50.727,0,0,1-19.081-.428,46.936,46.936,0,0,1-16.994-7.483.524.524,0,0,1,.494-.914h.007a55.1,55.1,0,0,0,17.134,3.7,48.114,48.114,0,0,0,7.582-.206.581.581,0,0,0,.391-.936,118.392,118.392,0,0,0-93.4-45.468h-.059a118.518,118.518,0,0,0-51.232,11.494,116.4,116.4,0,0,0-53.474,51.506,119.526,119.526,0,0,0-12.472,73.345l4.58,31.239a1.332,1.332,0,0,1-1.556,1.5,23.3,23.3,0,0,0-27.43,22.915,102.361,102.361,0,0,0,4.012,28.378l4.042,14.008a27.993,27.993,0,0,0,17.717,18.572,1.345,1.345,0,0,1,.907,1.452l-7.25,51.44a103.58,103.58,0,0,0,55.045,106.412,208.672,208.672,0,0,0,54.853,19.2s3.887.826,4.6.826a5.045,5.045,0,0,0,4.794-4.792l-.015-16.559a.705.705,0,0,1,.715-.759l.184-.007c26.022,0,52.4-7.395,72.37-20.29,10.3-6.658,15.1-15.453,12.834-23.541-1.689-6.031-6.527-9.5-10.791-12.571-.915-.664-1.778-1.283-2.589-1.91a32.406,32.406,0,0,1-12.376-20.909l-.76-5.6a2.244,2.244,0,0,1,.841-2.064l4.647-3.605a89.34,89.34,0,0,0,33.825-60.391l.339-2.529a1.33,1.33,0,0,1,1.106-1.135l9.647-1.541a27.958,27.958,0,0,0,22.039-19.7l4.042-14.008a102.361,102.361,0,0,0,4.012-28.378A23.213,23.213,0,0,0,1891.51,339.365ZM1759.6,471.832a1.631,1.631,0,0,1-1.748,1.475h-.229l.007-.007c-9.367-.619-17.289-5.574-20.954-12.49a.038.038,0,0,1-.015-.029c-.6-1.187.509-2.507,2.043-2.507h19.162a1.62,1.62,0,0,1,1.734,1.46Zm67.023,52.819c.944.737,1.925,1.445,2.869,2.123,3.275,2.359,6.372,4.579,7.154,7.38,1.261,4.5-3.717,9.614-8.806,12.9-18.181,11.745-43.3,18.756-67.163,18.756h-.037a.811.811,0,0,1-.848-.907V513.216a1.474,1.474,0,0,1,1.475-1.475h7.265a63.5,63.5,0,0,0,39-13.374l1.659-1.29c.723-.59,1.35-.1,1.519,1.01A42.066,42.066,0,0,0,1826.626,524.651Z" transform="translate(-1621.079 -165.234)" fill="#fff"/><path d="M1847.316,529.375a5.083,5.083,0,0,0,5.12,5.049,4.964,4.964,0,0,0,4.979-5.049,5.056,5.056,0,0,0-4.979-5.049A5.131,5.131,0,0,0,1847.316,529.375Z" transform="translate(-1680.449 -259.577)" fill="#fff"/><path d="M1814.145,493.42a15.315,15.315,0,0,1-21.662,0,4.795,4.795,0,0,0-6.781,6.781,24.905,24.905,0,0,0,35.223,0,4.794,4.794,0,0,0-6.78-6.781Z" transform="translate(-1663.912 -251.09)" fill="#fff"/><path d="M1879.336,412.892a45.2,45.2,0,0,0-88.664-10.12,1.316,1.316,0,0,1-1.77.848,44.7,44.7,0,0,0-34.415.044,1.312,1.312,0,0,1-1.77-.856,45.215,45.215,0,1,0,1.674,12.967,1.325,1.325,0,0,1,.642-1.136.157.157,0,0,1,.058-.037,34.392,34.392,0,0,1,33.183-.066.62.62,0,0,1,.148.089,1.37,1.37,0,0,1,.56,1.106,45.2,45.2,0,1,0,90.353-2.84Z" transform="translate(-1632.34 -219.001)" fill="#fff"/></g><g transform="translate(353.449 120.824)"><path d="M2093.965,865.882h-59.19c-5.544-2.11-8.2-3.354-8.2-7.077,0-3.892,2.747-6.181,7.435-6.181,4.121,0,6.977,2.06,8.35,6.29l10.52-5.026c-2.518-8.122-10.062-12.351-19.438-12.351-11.894,0-20.125,7.664-20.125,17.955a14.115,14.115,0,0,0,1.423,6.39h-12.361c-1.085-15.954-9.744-24.345-24.285-24.345-13.416,0-25.041,8.719-27.6,24.345h-14.253V864.06c0-13.834-8.47-22.523-20.811-22.523-9.157,0-14.76,4.12-17.5,8.121v-6.977h-12.81v23.2h-18.184v-23.2h-13.377v23.2h-17.5v-23.2h-12.351l-.109,6.061c-3.782-4-8.47-7.206-17.726-7.206-12.381,0-24.3,8.062-26.674,24.345h-24.673V862.7c4.459-4.12,9.037-6.868,16.691-6.868l.806-13.5a21.579,21.579,0,0,0-17.5,8.241v-7.893h-13.377v23.2h-18.3v-23.2H1710.39v6.061c-3.772-4-8.46-7.206-17.726-7.206-12.381,0-24.3,8.062-26.674,24.345h-14.153V864.06c0-13.834-8.231-22.523-20.463-22.523-10.411,0-16.243,4.459-19.786,9.495-3.434-6.181-9.6-9.495-17.617-9.495-9.027,0-14.4,4.12-17.149,8.121v-6.977h-12.809v23.2H1524.7v11.963h39.314v23.5h13.377v-23.5H1601.3v23.5h13.267v-23.5h24.006v23.5h13.267v-23.5h14.123c2.3,16.512,14.272,24.643,26.7,24.643,9.266,0,13.954-3.2,17.726-7.206v6.061h12.461v-23.5h18.3v23.5h13.377v-23.5h24.633c2.289,16.761,14.422,24.643,27.4,24.643,7.773,0,12.69-2.4,16.124-5.952v8.808c0,9.953-5.723,14.87-14.87,14.87-8.579,0-13.725-3.663-17.835-8.689l-9.037,8.57c6.061,7.554,15.437,11.436,26.534,11.436,16.811,0,28.585-10.63,28.585-27.331V877.845h17.5v23.5h13.377v-23.5h18.184v23.5H1898.5v-23.5h24.354v23.5h13.387v-23.5h14.073c2.2,16.2,14.541,24.643,29.033,24.643,9.375,0,17.616-3.663,22.533-10.291l-8.35-7.664a16.675,16.675,0,0,1-14.183,6.858c-8.371,0-14.661-5.175-15.756-13.546h69.5c5.106,1.931,7.554,3.613,7.554,7.375,0,3.891-2.518,6.171-7.893,6.171-5.146,0-8.808-3.195-10.52-8l-10.749,5.832c3.882,8.918,11.088,13.267,21.5,13.267,11.316,0,20.921-6.748,20.921-18.293a15.928,15.928,0,0,0-1.174-6.35h41.235Zm-516.575,0v-5.245c2.976-3.553,6.977-6.748,13.158-6.748,6.9,0,10.65,5.026,10.739,11.993Zm37.174,0v-2.389a19.341,19.341,0,0,0-.12-2.628c3.2-3.663,7.206-6.977,13.377-6.977,6.9,0,10.66,5.026,10.749,11.993Zm95.02,18.881c-3.085,3.892-6.967,6.629-13.944,6.629-7.256,0-13.944-4.479-15.955-13.546h29.9Zm0-18.881h-29.849c2.07-8.848,8.709-13.257,15.9-13.257,6.977,0,10.859,2.747,13.944,6.639ZM1822.8,884.762c-3.086,3.892-6.977,6.629-13.954,6.629-7.256,0-13.934-4.479-15.945-13.546h29.9Zm0-18.881h-29.849c2.07-8.848,8.7-13.257,15.895-13.257,6.977,0,10.868,2.747,13.954,6.639Zm75.7,0v-5.245c2.856-3.324,6.748-6.748,13.148-6.748,6.867,0,11.057,4.977,11.2,11.993Zm65.072,0c1.035-7.883,6.4-13.367,13.834-13.367s11.774,5.026,12,13.367Zm-111.5-43.1a8.133,8.133,0,0,1,8.012-8.122,8.117,8.117,0,1,1,0,16.233A7.985,7.985,0,0,1,1852.07,822.786Z" transform="translate(-1524.699 -814.664)" fill="#fff"/></g><g transform="translate(353.449 258.561)"><g transform="translate(32.877)"><path d="M-3591.968-5048.246c1.78-2.033,4.271-3.557,8.594-3.557,6.05,0,12.1,4.217,12.1,13.318,0,9.048-6.05,13.318-12,13.318-4.574,0-7.016-1.575-8.794-3.66v3.2h-2.847v-39.5h2.947Zm0,3.05v13.522a9.421,9.421,0,0,0,8.238,3.915c4.676,0,9.5-3.457,9.5-10.727s-4.829-10.726-9.5-10.726A9.479,9.479,0,0,0-3591.968-5045.2Z" transform="translate(3594.915 5065.48)" fill="#fff"/><path d="M-3553.505-5053.446v-3.253h2.846v25.724h-2.793v-3.2c-1.832,2.084-4.271,3.66-8.845,3.66-5.95,0-12-4.271-12-13.318s6.049-13.317,12.047-13.317C-3557.775-5057.155-3555.284-5055.532-3553.505-5053.446Zm-17.844,9.608c0,7.27,4.829,10.727,9.508,10.727a9.407,9.407,0,0,0,8.234-3.916v-13.521a9.462,9.462,0,0,0-8.234-4.016C-3566.52-5054.563-3571.349-5051.106-3571.349-5043.837Z" transform="translate(3608.764 5070.831)" fill="#fff"/><path d="M-3540.67-5053.975c-3.709,0-5.948,2.033-7.777,4.067v18.81h-2.949v-25.723h2.949v3.761a10.294,10.294,0,0,1,7.979-3.916Z" transform="translate(3624.145 5070.953)" fill="#fff"/><path d="M-3535.461-5048.246c1.78-2.033,4.271-3.557,8.59-3.557,6.05,0,12.1,4.217,12.1,13.318,0,9.048-6.049,13.318-12,13.318-4.574,0-7.013-1.575-8.792-3.66v3.2h-2.848v-39.5h2.949Zm0,3.05v13.522a9.414,9.414,0,0,0,8.235,3.915c4.679,0,9.507-3.457,9.507-10.727s-4.828-10.726-9.507-10.726A9.472,9.472,0,0,0-3535.461-5045.2Z" transform="translate(3632.867 5065.48)" fill="#fff"/><path d="M-3495.475-5043.023h-19.318c0,6.252,4.116,9.913,9.455,9.913a9.483,9.483,0,0,0,7.828-3.611l1.881,1.73a11.773,11.773,0,0,1-9.709,4.472c-6.864,0-12.452-4.677-12.452-13.064s5.334-13.571,11.994-13.571C-3498.678-5057.155-3494.661-5052.226-3495.475-5043.023Zm-19.266-2.543h16.471c.1-5.693-2.847-9-7.627-9S-3514.285-5050.954-3514.741-5045.566Z" transform="translate(3646.717 5070.831)" fill="#fff"/><path d="M-3486.018-5053.975c-3.712,0-5.949,2.033-7.781,4.067v18.81h-2.948v-25.723h2.948v3.761a10.3,10.3,0,0,1,7.983-3.916Z" transform="translate(3660.85 5070.953)" fill="#fff"/><path d="M-3468.9-5052.531l-2.39,1.271a5.4,5.4,0,0,0-5.388-3.3c-3.1,0-5.083,1.729-5.083,4.471,0,2.8,2.136,3.61,6,4.933,4.473,1.526,7.32,2.948,7.32,7.218,0,4.88-3.709,7.421-8.234,7.421-4.067,0-7.118-1.729-8.845-5.185l2.391-1.374a6.8,6.8,0,0,0,6.454,3.968c3.2,0,5.286-1.475,5.286-4.628,0-2.948-1.981-3.811-5.694-5.033-4.522-1.523-7.623-3.15-7.623-7.115,0-4.322,3.149-7.268,7.931-7.268C-3473.121-5057.155-3470.274-5055.631-3468.9-5052.531Z" transform="translate(3668.387 5070.831)" fill="#fff"/><path d="M-3464.908-5047.942a10.657,10.657,0,0,1,8.44-3.861c5.54,0,9.151,4.015,9.151,9.962v16.217h-2.947v-15.811c0-4.423-2.544-7.626-6.815-7.626-3.862,0-6.2,2.187-7.829,4.068v19.369h-2.949v-39.5h2.949Z" transform="translate(3680.254 5065.48)" fill="#fff"/><path d="M-3422.374-5043.837c0,8.032-5.848,13.318-12.912,13.318-7.018,0-12.862-5.286-12.862-13.318s5.844-13.317,12.862-13.317C-3428.222-5057.155-3422.374-5051.871-3422.374-5043.837Zm-22.825,0c0,6.455,4.473,10.727,9.913,10.727s9.911-4.272,9.911-10.727c0-6.558-4.473-10.726-9.911-10.726S-3445.2-5050.4-3445.2-5043.837Z" transform="translate(3693.492 5070.831)" fill="#fff"/><path d="M-3401.546-5043.837c0,9.1-6.051,13.318-12.1,13.318-4.322,0-6.814-1.524-8.593-3.56v16.068h-2.948V-5056.7h2.846v3.2c1.781-2.085,4.223-3.659,8.8-3.659C-3407.6-5057.155-3401.546-5052.889-3401.546-5043.837Zm-20.694-6.812v13.522a9.484,9.484,0,0,0,8.238,4.017c4.674,0,9.5-3.457,9.5-10.727s-4.829-10.726-9.5-10.726A9.418,9.418,0,0,0-3422.24-5050.649Z" transform="translate(3708.913 5070.831)" fill="#fff"/><path d="M-3371.249-5031.624c-3.3,4.014-7.219,6-11.947,6-6.66,0-11.49-3.864-11.49-10.065,0-5.439,3.406-8.083,8.335-11.135-2.9-2.793-5.488-5.641-5.488-9.3,0-5.439,4.169-8.389,9.149-8.389,4.88,0,9.151,3.2,9.151,8.235,0,4.628-3.914,7.168-8.185,9.711.562.507,1.12,1.067,1.678,1.626l8.54,8.694a47.22,47.22,0,0,0,4.22-9.3l2.846.915a50.816,50.816,0,0,1-4.983,10.522l7.933,8.083h-4.271Zm-1.982-2.085-9.354-9.559c-.562-.607-1.171-1.167-1.779-1.727-4.477,2.745-7.219,4.829-7.219,9.25,0,4.78,3.708,7.27,8.436,7.27C-3379.232-5028.474-3376.029-5030.254-3373.231-5033.709Zm-10.474-14.692c3.863-2.236,7.066-4.219,7.066-7.676a5.778,5.778,0,0,0-6.049-5.645c-3.2,0-6.047,1.881-6.047,5.746C-3388.736-5053.179-3386.451-5050.841-3383.706-5048.4Z" transform="translate(3729.402 5065.89)" fill="#fff"/><path d="M-3337.832-5052.428l-2.136,1.626a8.9,8.9,0,0,0-7.473-3.761c-5.388,0-9.605,3.965-9.605,10.726s4.218,10.727,9.605,10.727a8.784,8.784,0,0,0,7.473-3.761l2.136,1.624a11.125,11.125,0,0,1-9.608,4.728c-6.964,0-12.605-4.981-12.605-13.318s5.641-13.317,12.605-13.317A11.24,11.24,0,0,1-3337.832-5052.428Z" transform="translate(3752.666 5070.831)" fill="#fff"/><path d="M-3320.186-5053.446v-3.253h2.847v25.724h-2.8v-3.2c-1.829,2.084-4.272,3.66-8.845,3.66-5.949,0-12-4.271-12-13.318s6.047-13.317,12.048-13.317C-3324.457-5057.155-3321.966-5055.532-3320.186-5053.446Zm-17.844,9.608c0,7.27,4.828,10.727,9.5,10.727a9.42,9.42,0,0,0,8.238-3.916v-13.521a9.474,9.474,0,0,0-8.238-4.016C-3333.2-5054.563-3338.03-5051.106-3338.03-5043.837Z" transform="translate(3765.474 5070.831)" fill="#fff"/><path d="M-3304.071-5064.85l-.4,2.643a7.347,7.347,0,0,0-2.493-.406c-3.153,0-5.289,1.883-5.289,6.406v4.981h7.372v2.592h-7.372v23.131h-2.947v-23.131h-5.186v-2.592h5.186v-5.033c0-6.15,3.1-9.049,8.184-9.049A8.171,8.171,0,0,1-3304.071-5064.85Z" transform="translate(3779.303 5065.357)" fill="#fff"/><path d="M-3284.055-5037.529h-19.316c0,6.251,4.117,9.913,9.505,9.913a9.557,9.557,0,0,0,7.83-3.611l1.831,1.73a11.674,11.674,0,0,1-9.66,4.472c-6.862,0-12.5-4.678-12.5-13.064s5.386-13.571,12.048-13.571C-3287.206-5051.661-3283.239-5046.731-3284.055-5037.529Zm-19.265-2.542h16.47c.1-5.694-2.795-9-7.626-9C-3299.2-5049.069-3302.864-5045.459-3303.32-5040.071Zm7.828-15.556,5.7-9.71h3.355l-6.66,9.71Z" transform="translate(3788.718 5065.337)" fill="#fff"/></g><rect width="569.265" height="2.858" transform="translate(0 25.101)" fill="#fff"/></g></svg>