<svg xmlns="http://www.w3.org/2000/svg" width="57.906" height="41.092" viewBox="0 0 57.906 41.092"><path d="M28.453,40.092c-.178,0-17.847-.014-22.233-1.2a7.141,7.141,0,0,1-5.031-5.063C.014,29.416,0,20.139,0,20.046s.014-9.37,1.189-13.784A7.142,7.142,0,0,1,6.22,1.2C10.606.014,28.275,0,28.453,0S46.3.014,50.684,1.2a7.148,7.148,0,0,1,5.032,5.065c1.176,4.414,1.189,13.691,1.189,13.784s-.014,9.37-1.189,13.786A7.148,7.148,0,0,1,50.684,38.9C46.3,40.078,28.631,40.092,28.453,40.092ZM22.631,11.586V28.508L37.5,20.048Z" transform="translate(0.5 0.5)" fill="#fff" stroke="rgba(0,0,0,0)" stroke-miterlimit="10" stroke-width="1"/></svg>